<mxfile host="app.diagrams.net" agent="Mozilla/5.0 (Windows NT 10.0; Win64; x64) AppleWebKit/537.36 (KHTML, like Gecko) Chrome/118.0.0.0 Safari/537.36" version="24.7.16">
  <diagram name="第 1 页" id="-uHnmDTOva2zz25R22em">
    <mxGraphModel dx="1434" dy="782" grid="1" gridSize="10" guides="1" tooltips="1" connect="1" arrows="1" fold="1" page="1" pageScale="1" pageWidth="827" pageHeight="1169" math="0" shadow="0">
      <root>
        <mxCell id="0" />
        <mxCell id="1" parent="0" />
        <mxCell id="cMP3lkTp0bEfaP1zzsJy-1" value="&lt;div&gt;如果選擇備份&lt;/div&gt;" style="rounded=0;html=1;jettySize=auto;orthogonalLoop=1;fontSize=11;endArrow=block;endFill=0;endSize=8;strokeWidth=1;shadow=0;labelBackgroundColor=none;edgeStyle=orthogonalEdgeStyle;" edge="1" parent="1" source="cMP3lkTp0bEfaP1zzsJy-3" target="cMP3lkTp0bEfaP1zzsJy-5">
          <mxGeometry x="-0.0769" y="50" relative="1" as="geometry">
            <mxPoint as="offset" />
          </mxGeometry>
        </mxCell>
        <mxCell id="cMP3lkTp0bEfaP1zzsJy-2" value="&lt;div&gt;如果選擇還原&lt;/div&gt;" style="edgeStyle=orthogonalEdgeStyle;rounded=0;html=1;jettySize=auto;orthogonalLoop=1;fontSize=11;endArrow=block;endFill=0;endSize=8;strokeWidth=1;shadow=0;labelBackgroundColor=none;" edge="1" parent="1" source="cMP3lkTp0bEfaP1zzsJy-3" target="cMP3lkTp0bEfaP1zzsJy-6">
          <mxGeometry y="10" relative="1" as="geometry">
            <mxPoint as="offset" />
          </mxGeometry>
        </mxCell>
        <mxCell id="cMP3lkTp0bEfaP1zzsJy-3" value="&lt;div&gt;管理員選擇操作類型&lt;/div&gt;&lt;div&gt;（備份或還原）&lt;/div&gt;" style="rhombus;whiteSpace=wrap;html=1;shadow=0;fontFamily=Helvetica;fontSize=12;align=center;strokeWidth=1;spacing=6;spacingTop=-4;" vertex="1" parent="1">
          <mxGeometry x="150" y="350" width="140" height="120" as="geometry" />
        </mxCell>
        <mxCell id="cMP3lkTp0bEfaP1zzsJy-4" value="" style="edgeStyle=orthogonalEdgeStyle;rounded=0;orthogonalLoop=1;jettySize=auto;html=1;" edge="1" parent="1" source="cMP3lkTp0bEfaP1zzsJy-5" target="cMP3lkTp0bEfaP1zzsJy-16">
          <mxGeometry relative="1" as="geometry" />
        </mxCell>
        <mxCell id="cMP3lkTp0bEfaP1zzsJy-5" value="&lt;div&gt;系統自動備份&lt;/div&gt;" style="rounded=1;whiteSpace=wrap;html=1;fontSize=12;glass=0;strokeWidth=1;shadow=0;" vertex="1" parent="1">
          <mxGeometry x="160" y="535" width="120" height="40" as="geometry" />
        </mxCell>
        <mxCell id="cMP3lkTp0bEfaP1zzsJy-18" value="" style="edgeStyle=orthogonalEdgeStyle;rounded=0;orthogonalLoop=1;jettySize=auto;html=1;" edge="1" parent="1" source="cMP3lkTp0bEfaP1zzsJy-6" target="cMP3lkTp0bEfaP1zzsJy-17">
          <mxGeometry relative="1" as="geometry" />
        </mxCell>
        <mxCell id="cMP3lkTp0bEfaP1zzsJy-6" value="&lt;div&gt;系統自動還原各表的數據&lt;/div&gt;" style="rounded=1;whiteSpace=wrap;html=1;fontSize=12;glass=0;strokeWidth=1;shadow=0;" vertex="1" parent="1">
          <mxGeometry x="420" y="390" width="140" height="40" as="geometry" />
        </mxCell>
        <mxCell id="cMP3lkTp0bEfaP1zzsJy-7" value="&lt;div&gt;系統備份與還原頁面&lt;/div&gt;" style="text;html=1;align=center;verticalAlign=middle;resizable=0;points=[];autosize=1;strokeColor=none;fillColor=none;" vertex="1" parent="1">
          <mxGeometry x="155" y="38" width="130" height="30" as="geometry" />
        </mxCell>
        <mxCell id="cMP3lkTp0bEfaP1zzsJy-8" value="" style="rounded=0;html=1;jettySize=auto;orthogonalLoop=1;fontSize=11;endArrow=block;endFill=0;endSize=8;strokeWidth=1;shadow=0;labelBackgroundColor=none;edgeStyle=orthogonalEdgeStyle;" edge="1" parent="1" source="cMP3lkTp0bEfaP1zzsJy-9" target="cMP3lkTp0bEfaP1zzsJy-12">
          <mxGeometry relative="1" as="geometry" />
        </mxCell>
        <mxCell id="cMP3lkTp0bEfaP1zzsJy-9" value="&lt;div&gt;管理員登入系統&lt;/div&gt;" style="rounded=1;whiteSpace=wrap;html=1;fontSize=12;glass=0;strokeWidth=1;shadow=0;" vertex="1" parent="1">
          <mxGeometry x="160" y="80" width="120" height="40" as="geometry" />
        </mxCell>
        <mxCell id="cMP3lkTp0bEfaP1zzsJy-10" value="&lt;div&gt;如果已登入&lt;/div&gt;" style="rounded=0;html=1;jettySize=auto;orthogonalLoop=1;fontSize=11;endArrow=block;endFill=0;endSize=8;strokeWidth=1;shadow=0;labelBackgroundColor=none;edgeStyle=orthogonalEdgeStyle;exitX=0.5;exitY=1;exitDx=0;exitDy=0;entryX=0.5;entryY=0;entryDx=0;entryDy=0;" edge="1" parent="1" source="cMP3lkTp0bEfaP1zzsJy-12" target="cMP3lkTp0bEfaP1zzsJy-3">
          <mxGeometry y="40" relative="1" as="geometry">
            <mxPoint as="offset" />
            <mxPoint x="220" y="340" as="targetPoint" />
            <mxPoint x="220" y="300" as="sourcePoint" />
          </mxGeometry>
        </mxCell>
        <mxCell id="cMP3lkTp0bEfaP1zzsJy-11" value="&lt;div&gt;如果未登入&lt;/div&gt;" style="edgeStyle=orthogonalEdgeStyle;rounded=0;html=1;jettySize=auto;orthogonalLoop=1;fontSize=11;endArrow=block;endFill=0;endSize=8;strokeWidth=1;shadow=0;labelBackgroundColor=none;" edge="1" parent="1" source="cMP3lkTp0bEfaP1zzsJy-12" target="cMP3lkTp0bEfaP1zzsJy-13">
          <mxGeometry y="10" relative="1" as="geometry">
            <mxPoint as="offset" />
          </mxGeometry>
        </mxCell>
        <mxCell id="cMP3lkTp0bEfaP1zzsJy-12" value="&lt;div&gt;檢查管理員身份&lt;/div&gt;" style="rhombus;whiteSpace=wrap;html=1;shadow=0;fontFamily=Helvetica;fontSize=12;align=center;strokeWidth=1;spacing=6;spacingTop=-4;" vertex="1" parent="1">
          <mxGeometry x="160" y="160" width="120" height="100" as="geometry" />
        </mxCell>
        <mxCell id="cMP3lkTp0bEfaP1zzsJy-13" value="&lt;div&gt;提示「請先登入」並跳轉到登入頁面&lt;/div&gt;" style="rounded=1;whiteSpace=wrap;html=1;fontSize=12;glass=0;strokeWidth=1;shadow=0;" vertex="1" parent="1">
          <mxGeometry x="390" y="190" width="210" height="40" as="geometry" />
        </mxCell>
        <mxCell id="cMP3lkTp0bEfaP1zzsJy-16" value="&lt;div&gt;提示「系統備份成功」&lt;/div&gt;" style="rounded=1;whiteSpace=wrap;html=1;glass=0;strokeWidth=1;shadow=0;" vertex="1" parent="1">
          <mxGeometry x="115" y="650" width="210" height="45" as="geometry" />
        </mxCell>
        <mxCell id="cMP3lkTp0bEfaP1zzsJy-17" value="&lt;div&gt;提示「系統還原成功」&lt;/div&gt;" style="rounded=1;whiteSpace=wrap;html=1;glass=0;strokeWidth=1;shadow=0;" vertex="1" parent="1">
          <mxGeometry x="650" y="390" width="130" height="40" as="geometry" />
        </mxCell>
      </root>
    </mxGraphModel>
  </diagram>
</mxfile>
